<svg xmlns="http://www.w3.org/2000/svg" width="17" height="17" viewBox="0 0 17 17">
  <path fill="#070707" fill-opacity="0.65" d="M12.6491,8.52137L12.6494,8.50434C12.6494,8.31819 12.6361,8.13482 12.6119,7.95518L16.8984,6.98324C16.9436,7.23288 16.9774,7.48655 17,7.74363L15.0636,8.18345C14.3011,8.37363 13.6343,8.36434 13.6343,8.36434C14.1914,8.50434 14.9003,8.89987 14.9003,8.89987L16.9027,10.0025C16.8553,10.268 16.7949,10.5294 16.7236,10.7861L14.4393,10.9144C14.4393,10.9144 13.6281,10.9639 13.0652,10.8493C13.0652,10.8493 13.6703,11.1293 14.2744,11.6299L15.8285,12.8641C15.6969,13.084 15.555,13.2975 15.4041,13.5037L11.9662,10.7765C12.0706,10.6189 12.1648,10.4538 12.2469,10.2822L14.5015,10.1552C14.5015,10.1552 15.1605,10.1109 15.8307,10.1707C15.2005,9.9353 14.6258,9.6107 14.6258,9.6107L12.6491,8.52137Z"/>
  <path fill="#070707" fill-opacity="0.65" d="M11.0736,11.7466C11.2223,11.6292 11.363,11.5016 11.4943,11.3653L14.9288,14.0978C14.7596,14.2905 14.5827,14.4757 14.3971,14.6522L12.8443,13.4176C12.2197,12.9422 11.8113,12.4169 11.8113,12.4169C12.0486,12.9382 12.1806,13.7373 12.1806,13.7373L12.5639,15.9844C12.3281,16.112 12.0855,16.2285 11.8373,16.3338L10.312,14.6336C10.312,14.6336 9.76736,14.0331 9.50648,13.5229C9.50648,13.5229 9.66418,14.1687 9.64807,14.9517L9.64869,16.9315C9.39618,16.9656 9.14057,16.9885 8.88186,16.9997L8.87846,12.621C9.06993,12.604 9.25769,12.5733 9.4408,12.5312L10.9466,14.209C10.9466,14.209 11.3921,14.695 11.763,15.2543C11.5551,14.6169 11.4516,13.9668 11.4516,13.9668L11.0736,11.7466Z"/>
  <path fill="#070707" fill-opacity="0.65" d="M13.1876,4.42175L11.0999,5.2828C10.9525,5.16449 10.7966,5.05546 10.6333,4.95758L12.5425,1.01314C12.7693,1.13455 12.9893,1.26619 13.203,1.40712L12.3405,3.19087C12.0145,3.90356 11.5913,4.41741 11.5913,4.41741C12.0483,4.07051 12.8006,3.76449 12.8006,3.76449L14.9124,2.89291C15.0902,3.09423 15.2585,3.30392 15.4168,3.52166L14.0938,5.37975C14.0938,5.37975 13.6272,6.04289 13.1863,6.40992C13.1863,6.40992 13.783,6.11289 14.5527,5.95462L16.4913,5.51263C16.5811,5.75112 16.6607,5.99457 16.7289,6.24236L12.4446,7.22018C12.3851,7.03899 12.3141,6.86306 12.2311,6.69364L13.537,4.85816C13.537,4.85816 13.9132,4.31706 14.3782,3.83233C13.8004,4.17644 13.1876,4.42175 13.1876,4.42175Z"/>
  <path fill="#070707" fill-opacity="0.65" d="M3.46265,4.85878L4.76889,6.69395C4.68585,6.86306 4.61459,7.03961 4.55572,7.2208L0.27079,6.24329C0.339263,5.9955 0.418889,5.75236 0.508739,5.51387L2.44734,5.95523C3.21695,6.11351 3.81368,6.41054 3.81368,6.41054C3.37249,6.04351 2.90588,5.38068 2.90588,5.38068L1.58292,3.52228C1.74124,3.30485 1.90948,3.09485 2.08701,2.89352L4.1988,3.76511C4.1988,3.76511 4.95138,4.07082 5.40868,4.41772C5.40868,4.41772 4.98515,3.90387 4.65921,3.19149L3.79633,1.40774C4.01012,1.26681 4.2304,1.13517 4.45658,1.01345L6.36636,4.95789C6.20308,5.05577 6.04755,5.16449 5.89976,5.28311L3.81244,4.42206C3.81244,4.42206 3.19929,4.17706 2.62146,3.83325C3.08652,4.31768 3.46265,4.85878 3.46265,4.85878Z"/>
  <path fill="#070707" fill-opacity="0.65" d="M6.05437,14.2093L7.56013,12.5312C7.74324,12.5733 7.93038,12.604 8.12247,12.6213L8.11938,17C7.86098,16.9885 7.60506,16.9659 7.35286,16.9319L7.35317,14.9517C7.33675,14.169 7.49445,13.5232 7.49445,13.5232C7.23357,14.0331 6.6889,14.634 6.6889,14.634L5.16423,16.3344C4.91575,16.2291 4.67315,16.1126 4.43768,15.985L4.82094,13.7376C4.82094,13.7376 4.9523,12.9388 5.18963,12.4175C5.18963,12.4175 4.78128,12.9428 4.15697,13.4182L2.60442,14.6528C2.41883,14.4763 2.2413,14.2911 2.07245,14.0984L5.50628,11.3656C5.63765,11.5022 5.77831,11.6292 5.92734,11.7469L5.54935,13.9671C5.54935,13.9671 5.44586,14.6169 5.23828,15.255C5.60883,14.6956 6.05437,14.2093 6.05437,14.2093Z"/>
  <path fill="#070707" fill-opacity="0.65" d="M8.21976,2.3072L7.59391,4.46945C7.40708,4.51126 7.22428,4.56484 7.04768,4.63051L5.14347,0.683581C5.37832,0.583227 5.61875,0.493405 5.86413,0.414113L6.72639,2.19941C7.08207,2.89786 7.22118,3.54799 7.22118,3.54799C7.23419,2.9756 7.46347,2.19879 7.46347,2.19879L8.09614,0.00991145C8.22999,0.00340706 8.36476,0 8.50016,0C8.63555,0 8.77002,0.0037168 8.90386,0.00991145L9.53653,2.19848C9.53653,2.19848 9.76581,2.97529 9.77882,3.54768C9.77882,3.54768 9.91793,2.89755 10.2736,2.1991L11.1362,0.413803C11.3813,0.493095 11.622,0.582917 11.8568,0.683271L9.95263,4.63082C9.77603,4.56484 9.59354,4.51126 9.4061,4.46976L8.78024,2.30689C8.78024,2.30689 8.59063,1.67658 8.49985,1.01221C8.40969,1.67658 8.21976,2.3072 8.21976,2.3072Z"/>
  <path fill="#070707" fill-opacity="0.65" d="M3.36598,8.36496C3.36598,8.36496 2.69892,8.37456 1.93674,8.18438L0,7.74487C0.0229273,7.4881 0.0566987,7.23443 0.101934,6.98448L4.3878,7.95549C4.36394,8.13513 4.35031,8.31819 4.35031,8.50434L4.35093,8.52199L2.37422,9.61132C2.37422,9.61132 1.79949,9.93592 1.1696,10.1719C1.83976,10.1118 2.49877,10.1555 2.49877,10.1555L4.75308,10.2825C4.83581,10.4544 4.92969,10.6192 5.0341,10.7768L1.59655,13.5047C1.44566,13.2984 1.30407,13.085 1.17177,12.8651L2.72618,11.6305C3.33035,11.1296 3.93514,10.8499 3.93514,10.8499C3.37249,10.9649 2.56136,10.915 2.56136,10.915L0.276987,10.7871C0.205107,10.5306 0.145,10.2692 0.0975961,10.0034L2.09971,8.90079C2.09971,8.90079 2.80891,8.50496 3.36598,8.36496Z"/>
</svg>
