<svg width="16" height="14" viewBox="0 0 16 14" fill="none" xmlns="http://www.w3.org/2000/svg">
<path d="M11.1752 9.43153L12.0641 8.55666C12.203 8.41996 12.4447 8.51565 12.4447 8.71249V12.6877C12.4447 13.4122 11.8475 14 11.1114 14H1.33336C0.597235 14 0 13.4122 0 12.6877V3.0641C0 2.3396 0.597235 1.75179 1.33336 1.75179H8.93075C9.12797 1.75179 9.22798 1.98692 9.08909 2.12635L8.20018 3.00122C8.15851 3.04223 8.10295 3.0641 8.04184 3.0641H1.33336V12.6877H11.1114V9.58463C11.1114 9.52722 11.1336 9.47254 11.1752 9.43153ZM15.5253 3.91437L8.23073 11.0938L5.71957 11.3672C4.99177 11.4465 4.37232 10.8423 4.45287 10.1205L4.73066 7.64898L12.0253 0.46956C12.6614 -0.15652 13.6892 -0.15652 14.3225 0.46956L15.5226 1.65064C16.1587 2.27672 16.1587 3.29102 15.5253 3.91437ZM12.7808 4.75917L11.1669 3.17073L6.00569 8.25319L5.8029 10.0385L7.61683 9.83889L12.7808 4.75917ZM14.5809 2.58019L13.3808 1.39911C13.267 1.28702 13.0808 1.28702 12.9697 1.39911L12.1114 2.24391L13.7253 3.83235L14.5836 2.98755C14.6948 2.87272 14.6948 2.69228 14.5809 2.58019Z" fill="#F2F2F2" fill-opacity="0.65"/>
</svg>
