<svg width="14" height="14" viewBox="0 0 14 14" fill="none" xmlns="http://www.w3.org/2000/svg">
<path d="M14 6.98571C14 6.27143 13.8086 5.55714 13.5078 4.92857C13.3164 4.52857 12.7969 4.44286 12.4688 4.75714L12.1406 5.12857C11.9492 5.32857 11.8945 5.61429 12.0039 5.87143C12.168 6.21429 12.25 6.61429 12.25 6.98571C12.25 8.5 11.0469 9.72857 9.625 9.72857H4.64844L5.57812 8.81429C5.85156 8.55714 5.85156 8.1 5.60547 7.84286L5.30469 7.52857C5.03125 7.24286 4.62109 7.24286 4.375 7.52857L1.83203 10.1857C1.58594 10.4429 1.58594 10.8714 1.83203 11.1286L4.375 13.7857C4.62109 14.0714 5.03125 14.0714 5.30469 13.7857L5.60547 13.4714C5.85156 13.2143 5.85156 12.7571 5.57812 12.5L4.64844 11.5571H9.625C12.0312 11.5571 14 9.52857 14 6.98571ZM1.96875 8.12857C1.80469 7.78571 1.75 7.38571 1.75 6.98571C1.75 5.5 2.92578 4.24286 4.375 4.24286H9.32422L8.39453 5.18571C8.12109 5.44286 8.12109 5.9 8.36719 6.15714L8.66797 6.47143C8.94141 6.75714 9.35156 6.75714 9.59766 6.47143L12.1406 3.81429C12.3867 3.55714 12.3867 3.12857 12.1406 2.87143L9.59766 0.214286C9.35156 -0.0714286 8.94141 -0.0714286 8.66797 0.214286L8.36719 0.528571C8.12109 0.785714 8.12109 1.24286 8.39453 1.5L9.32422 2.41429H4.375C1.94141 2.41429 0 4.47143 0 6.98571C0 7.72857 0.164062 8.44286 0.464844 9.07143C0.65625 9.47143 1.17578 9.55714 1.50391 9.24286L1.83203 8.87143C2.02344 8.67143 2.07812 8.38571 1.96875 8.12857Z" fill="#3968FF"/>
</svg>
