<svg width="15" height="16" viewBox="0 0 15 16" fill="none" xmlns="http://www.w3.org/2000/svg">
<path d="M14 2.5H11.4062L10.3438 0.75C10.0938 0.3125 9.59375 0 9.0625 0H5.90625C5.375 0 4.875 0.3125 4.625 0.75L3.5625 2.5H1C0.71875 2.5 0.5 2.75 0.5 3V3.5C0.5 3.78125 0.71875 4 1 4H1.5L2.15625 14.5938C2.1875 15.4062 2.84375 16 3.65625 16H11.3125C12.125 16 12.7812 15.4062 12.8125 14.5938L13.5 4H14C14.25 4 14.5 3.78125 14.5 3.5V3C14.5 2.75 14.25 2.5 14 2.5ZM5.90625 1.5H9.0625L9.65625 2.5H5.3125L5.90625 1.5ZM11.3125 14.5H3.65625L3 4H11.9688L11.3125 14.5Z" fill="#FF6E6E"/>
</svg>
