<svg width="27" height="24" viewBox="0 0 27 24" fill="none" xmlns="http://www.w3.org/2000/svg">
<path d="M11.6464 9.59887C11.6464 9.2705 11.881 8.98905 12.2094 8.98905H14.7897C15.1181 8.98905 15.3526 9.2705 15.3526 9.59887L15.0242 14.8527C15.0242 15.1342 14.7897 15.3687 14.4613 15.3687H12.5378C12.2094 15.3687 11.9748 15.1811 11.9748 14.8527L11.6464 9.59887ZM15.4934 17.9956C15.4934 19.1214 14.602 19.9658 13.523 19.9658C12.397 19.9658 11.5526 19.1214 11.5526 17.9956C11.5526 16.9167 12.397 16.0254 13.523 16.0254C14.602 16.0254 15.4934 16.9167 15.4934 17.9956ZM15.4465 1.1083L26.7059 20.6694C27.5503 22.1705 26.4713 24 24.7355 24H2.26356C0.527728 24 -0.551299 22.1236 0.293157 20.6694L11.5526 1.1083C12.397 -0.392795 14.602 -0.345886 15.4465 1.1083ZM2.49813 21.3731C2.35738 21.5607 2.49813 21.7484 2.7327 21.7484H24.2663C24.5009 21.7484 24.6417 21.5607 24.5009 21.3731L13.7575 2.70321C13.6168 2.51558 13.3822 2.51558 13.2415 2.70321L2.49813 21.3731Z" fill="#F2F2F2" fill-opacity="0.65"/>
</svg>
