<svg width="14" height="14" viewBox="0 0 14 14" fill="none" xmlns="http://www.w3.org/2000/svg">
<path d="M5.88889 6.25C6.05556 6.25 6.22222 6.08333 6.22222 5.91667V4.58333C6.22222 4.38889 6.05556 4.25 5.88889 4.25H3.16667C4.05556 3.02778 5.47222 2.22222 7.11111 2.22222C9.80556 2.22222 12 4.41667 12 7.11111C12 9.83333 9.80556 12 7.11111 12C5.86111 12 4.72222 11.5556 3.86111 10.7778C3.72222 10.6667 3.52778 10.6667 3.41667 10.8056L2.47222 11.75C2.33333 11.8889 2.33333 12.1111 2.47222 12.2222C3.69444 13.3333 5.33333 14 7.11111 14C10.9167 14 14 10.9444 14 7.13889C14 3.33333 10.9722 0.277778 7.16667 0.25C5.11111 0.222222 3.25 1.11111 2 2.52778V0.333333C2 0.166667 1.83333 0 1.66667 0H0.333333C0.138889 0 0 0.166667 0 0.333333V5.91667C0 6.08333 0.138889 6.25 0.333333 6.25H5.88889Z" fill="#A6BFFF"/>
</svg>
