<svg width="40" height="40" viewBox="0 0 40 40" fill="none" xmlns="http://www.w3.org/2000/svg">
<path d="M40 20C40 31.0457 31.0457 40 20 40C8.9543 40 0 31.0457 0 20C0 8.9543 8.9543 0 20 0C31.0457 0 40 8.9543 40 20Z" fill="#35B940"/>
<path d="M16.259 28.006L8.67568 20.7422C8.22009 20.3058 8.22009 19.5983 8.67568 19.1618L10.3256 17.5814C10.7811 17.145 11.5199 17.145 11.9755 17.5814L17.084 22.4746L28.0258 11.9939C28.4814 11.5575 29.2202 11.5575 29.6757 11.9939L31.3256 13.5743C31.7812 14.0107 31.7812 14.7183 31.3256 15.1547L17.9089 28.006C17.4533 28.4424 16.7146 28.4424 16.259 28.006Z" fill="white"/>
</svg>
